<svg xmlns="http://www.w3.org/2000/svg" x="0px" y="0px"
width="20" height="20"
viewBox="0 0 172 172"
style=" fill:#000000;"><g fill="none" fill-rule="nonzero" stroke="none" stroke-width="1" stroke-linecap="butt" stroke-linejoin="miter" stroke-miterlimit="10" stroke-dasharray="" stroke-dashoffset="0" font-family="none" font-weight="none" font-size="none" text-anchor="none" style="mix-blend-mode: normal"><path d="M0,172v-172h172v172z" fill="none"></path><g fill="#0e7cce"><path d="M86,3.44c-1.41918,0.00123 -2.69197,0.87377 -3.20485,2.19703l-21.21109,54.68391l-58.31875,2.97641c-1.42104,0.07193 -2.65119,1.01123 -3.09488,2.36314c-0.44369,1.35192 -0.00937,2.83748 1.09269,3.73748l45.41203,37.12781l-14.91562,56.33672c-0.36448,1.37274 0.15208,2.82834 1.30034,3.66425c1.14826,0.83591 2.69217,0.88027 3.88654,0.11168l49.0536,-31.48406l49.0536,31.48406c1.19437,0.76859 2.73828,0.72423 3.88654,-0.11168c1.14826,-0.83591 1.66481,-2.29152 1.30034,-3.66425l-14.91562,-56.33672l45.41203,-37.12781c1.10206,-0.9 1.53638,-2.38556 1.09269,-3.73748c-0.44369,-1.35192 -1.67383,-2.29121 -3.09488,-2.36314l-58.31875,-2.97641l-21.21109,-54.68391c-0.51288,-1.32326 -1.78567,-2.1958 -3.20485,-2.19703zM86,16.38703l18.80578,48.49594c0.49155,1.26528 1.68113,2.12325 3.03687,2.19031l51.6336,2.64047l-40.21844,32.88828c-1.04357,0.85326 -1.49268,2.23736 -1.14891,3.54078l13.21578,49.92703l-43.46359,-27.90297c-1.13361,-0.72914 -2.58858,-0.72914 -3.72219,0l-43.46359,27.90297l13.21578,-49.92703c0.34378,-1.30342 -0.10534,-2.68753 -1.14891,-3.54078l-40.21844,-32.88828l51.6336,-2.64047c1.35575,-0.06706 2.54532,-0.92503 3.03687,-2.19031z"></path></g></g>
</svg>