<svg xmlns="http://www.w3.org/2000/svg" x="0px" y="0px"
width="20" height="20"
viewBox="0 0 172 172"
style=" fill:#000000;"><g fill="none" fill-rule="nonzero" stroke="none" stroke-width="1" stroke-linecap="butt" stroke-linejoin="miter" stroke-miterlimit="10" stroke-dasharray="" stroke-dashoffset="0" font-family="none" font-weight="none" font-size="none" text-anchor="none" style="mix-blend-mode: normal"><path d="M0,172v-172h172v172z" fill="none"></path><g fill="#0e7cce"><path d="M90.386,13.95493l16.48333,48.80213l51.50253,0.59627c4.43187,0.0516 6.26653,5.69893 2.71187,8.342l-41.32013,30.7536l15.34813,49.16907c1.31867,4.2312 -3.48013,7.71707 -7.09787,5.15427l-42.01387,-29.79613l-42.0196,29.7904c-3.612,2.5628 -8.41653,-0.9288 -7.09787,-5.15427l15.34813,-49.16907l-41.32013,-30.7536c-3.55467,-2.64307 -1.72,-8.2904 2.71187,-8.342l51.50253,-0.59627l16.48333,-48.80213c1.42187,-4.1968 7.3616,-4.1968 8.77773,0.00573z"></path></g></g>
</svg>