<svg width="74" height="22" viewBox="0 0 74 22" fill="none" xmlns="http://www.w3.org/2000/svg">
<path d="M73.2665 6.6143V6.53164V6.28361C73.2665 6.20093 73.2665 6.11825 73.185 6.11825L73.1035 6.03559C73.185 6.03559 73.185 5.95288 73.2665 5.95288C73.2665 5.8702 73.348 5.78753 73.348 5.70485C73.348 5.45682 73.185 5.37412 72.9405 5.37412H72.37V6.69701H72.533V6.11825H72.9405C73.022 6.11825 73.1035 6.11823 73.1035 6.2009C73.1035 6.2009 73.1035 6.28359 73.1035 6.36627C73.1035 6.53163 73.1035 6.61433 73.1035 6.69701L73.2665 6.6143C73.2665 6.6143 73.2665 6.69698 73.2665 6.6143ZM72.7775 5.95288H72.37V5.53948H72.7775C72.9405 5.53948 73.022 5.62215 73.022 5.78751C73.022 5.87019 72.9405 5.95288 72.7775 5.95288ZM63.2423 5.2088C63.4053 5.45684 63.4868 5.53948 63.5683 5.53948L63.7313 5.45683C63.7313 5.37415 63.7313 5.37416 63.7313 5.2088C63.7313 5.12612 63.7313 5.04343 63.7313 5.04343C63.6498 4.96075 63.6498 4.79541 63.5683 4.38201C63.4868 4.13398 63.3238 4.05128 63.0793 4.05128C62.8348 4.29931 62.7533 4.38199 62.7533 4.46467C62.7533 4.54735 62.8348 4.54736 62.8348 4.63004C62.9978 4.7954 63.1608 4.96076 63.2423 5.2088ZM63.4868 14.2207C63.4868 14.6341 63.8128 15.1302 64.3833 15.5436C64.8722 15.7917 65.2797 15.8743 65.7687 15.8743C66.3392 15.8743 67.1542 15.6263 68.2137 15.1302C69.4361 14.5515 70.2511 14.1381 70.5771 14.0554C70.5771 13.89 70.5771 13.5593 70.5771 13.2286C70.5771 13.1459 70.5771 13.0632 70.5771 12.9806C70.5771 12.8979 70.5771 12.7326 70.5771 12.6499C70.4956 11.7404 70.4141 10.9963 70.1696 10.3348C69.5991 9.3427 68.8656 8.92934 67.8877 8.92934C67.4802 8.92934 67.0727 9.09468 66.7467 9.42539C66.7467 9.83879 66.9097 10.0868 67.2357 10.0868C67.2357 10.0868 67.3987 10.0868 67.5617 10.0868C67.7247 10.0868 67.8062 10.0868 67.8062 10.0868C67.9692 10.0868 68.0507 10.0868 68.2137 10.1695C68.9471 10.5002 69.3546 10.9963 69.3546 11.6577C69.3546 11.8231 69.3546 11.9058 69.2731 12.0711C68.8656 11.9058 68.3767 11.9058 67.9692 11.9058C66.6652 11.9058 65.4427 12.3191 64.3018 13.2286C64.2203 13.3113 64.0573 13.394 63.9758 13.4767C63.8943 13.5594 63.8128 13.642 63.7313 13.7247C63.5683 13.8074 63.4868 13.9727 63.4868 14.2207ZM65.6057 13.394L65.7687 13.3113L66.3392 13.0633L66.5022 12.9806L66.8282 12.8152H66.9097C67.0727 12.8979 67.2357 12.8979 67.4802 12.8979H67.8062C67.8877 12.8979 67.9692 12.8979 68.1322 12.8979C68.2952 12.8979 68.4582 12.8979 68.5396 12.9806C68.6211 12.9806 68.6212 12.9806 68.6212 12.9806C68.6212 12.9806 68.6211 12.9806 68.7026 12.9806C68.9471 13.0632 69.1101 13.2286 69.2731 13.4767C67.8062 14.1381 66.7467 14.4688 66.1762 14.4688C65.6057 14.4688 65.1982 14.3034 64.7907 14.0554C64.8722 13.89 65.1982 13.5593 65.6057 13.394ZM72.696 4.7127C71.8811 4.7127 71.2291 5.45681 71.4736 6.36627C71.5551 6.86234 71.9626 7.19307 72.4515 7.35843C73.2665 7.52378 74 6.94503 74 6.11825C74 5.29146 73.4295 4.7127 72.696 4.7127ZM72.696 7.19306C71.9626 7.19306 71.3921 6.53162 71.5551 5.78751C71.6366 5.37412 71.9626 5.0434 72.37 4.96072C73.1035 4.79537 73.7555 5.37414 73.7555 6.11825C73.837 6.697 73.348 7.19306 72.696 7.19306ZM59.5749 15.709C59.8194 15.5436 59.9009 15.2956 59.9009 14.9649C59.9824 14.4688 60.1454 13.9727 60.3084 13.4767C60.3899 13.394 60.3899 13.2286 60.4714 13.1459C60.5529 12.8979 60.7159 12.5672 60.8789 12.3191C61.2863 11.4097 61.6938 10.5829 62.0198 9.75613C62.1828 9.42541 62.1828 9.17737 62.1828 8.76397C62.1828 8.51594 62.1013 8.35058 61.9383 8.35058C61.8568 8.35058 61.6938 8.43325 61.4493 8.59861C61.2863 9.012 60.7974 10.0041 59.9824 11.7404C59.7379 12.2365 59.5749 12.6499 59.4119 13.1459C59.3304 13.3113 59.3304 13.394 59.2489 13.5593C59.0859 14.0554 58.9229 14.5515 58.8414 15.0475C58.7599 15.2956 58.8414 15.4609 59.0044 15.6263C59.2489 15.709 59.4119 15.709 59.5749 15.709ZM60.9604 6.86237C61.2863 6.86237 61.4493 6.69702 61.4493 6.44898C61.4493 6.3663 61.4493 6.28361 61.4493 6.28361C61.0419 6.11826 60.3084 6.03557 59.2489 6.11825C58.1079 6.20092 57.4559 6.2009 57.13 6.2009C57.0485 5.4568 57.2115 4.05127 57.6189 1.81894C57.456 1.40555 57.3745 1.24018 57.2115 1.24018C57.13 1.24018 57.0485 1.24021 57.0485 1.32289C56.8855 2.067 56.7225 2.64576 56.5595 3.14183C56.3965 3.80326 56.315 4.38197 56.3965 4.96072C56.478 5.95287 56.0705 6.53165 55.0925 6.69701C54.7665 6.69701 54.4405 6.69699 53.9515 6.77966C53.2996 6.86234 52.8106 7.1104 52.5661 7.52379C52.7291 7.60647 53.0551 7.68913 53.4626 7.60645C53.87 7.44109 54.522 7.35842 55.4185 7.19306L55.663 7.27577L54.1145 12.9806L53.9515 13.4767L53.4626 15.1302L53.6255 16.1223C53.87 16.0397 54.033 16.0397 54.1145 15.957L54.7665 13.4767L54.9295 12.8979L56.152 8.35058C56.478 7.60647 57.0485 7.19305 57.9449 7.02769C58.5969 7.02769 59.4934 6.94505 60.6344 6.86237C60.7974 6.86237 60.8789 6.86237 60.9604 6.86237ZM18.4185 20.9178C18.4185 21.3311 18.5 21.6618 18.7445 21.9099C19.152 22.0752 19.3965 21.9926 19.478 21.8272V21.3311C19.478 21.1658 19.3965 21.0004 19.2335 21.0004C19.478 19.8429 20.0485 18.4374 20.9449 16.7011C21.9229 14.8822 22.5749 13.5593 22.9009 12.7325C22.9009 12.6499 22.9824 12.6499 22.9824 12.5672C23.2269 12.4018 23.4714 12.1538 23.8789 11.9058C24.4493 11.4924 25.1828 10.9136 26.0793 10.2522C27.2203 9.42539 28.3612 9.01202 29.5022 8.92934C29.5022 9.42541 28.9317 10.1695 27.7907 11.2443C27.6278 11.327 27.3833 11.575 26.9758 11.9058C26.7313 12.0711 26.4053 12.3191 25.9978 12.5672C25.7533 12.7325 25.5088 12.8979 25.1828 13.0633C24.1234 13.8074 23.3899 14.4688 22.9009 15.1302C22.9009 15.461 22.9824 15.6263 23.2269 15.6263C23.3084 15.6263 23.3899 15.6263 23.4714 15.5436C23.9603 15.0476 24.7753 14.3861 25.9978 13.5593C26.5683 13.1459 27.1388 12.7325 27.5463 12.4018C27.8722 12.1538 28.1982 11.9058 28.3612 11.6577C28.3612 11.6577 28.4427 11.6577 28.4427 11.575C28.5242 11.327 28.9317 10.831 29.5837 10.1695C30.0727 9.67345 30.2357 9.09467 30.1542 8.43324L29.9097 8.18521C29.1762 8.10253 28.1982 8.35057 26.8943 9.012C26.7313 9.09468 25.7533 9.67343 24.1233 10.6656C24.2048 10.4175 24.3678 10.0868 24.6938 9.59076C25.0198 9.09469 25.1828 8.76398 25.1828 8.51595C25.1828 8.51595 25.1828 8.43323 25.1013 8.26787C24.8568 8.26787 24.6123 8.43323 24.3678 8.68127C24.1234 9.01198 23.8789 9.17735 23.7974 9.26003C23.5529 10.0041 23.0639 10.8309 22.2489 11.9058L22.1674 11.9884C22.0044 12.2365 21.8414 12.4018 21.6784 12.6499C21.0264 13.5594 20.6189 14.2208 20.3745 14.7169C20.4559 14.8822 20.5374 15.0475 20.5374 15.2956C20.5374 15.5436 20.3744 16.0397 20.13 16.6185C19.967 17.0318 19.7225 17.4452 19.478 17.8586C19.3965 18.1067 19.152 18.6027 18.826 19.3468C18.5815 20.0909 18.4185 20.587 18.4185 20.9178ZM47.1872 16.2877C47.5947 15.5436 48.3282 14.4688 49.2247 13.2286C49.3877 13.0632 49.4692 12.8152 49.6322 12.6499C50.1211 11.9058 50.7731 11.1616 51.4251 10.3348C51.5881 10.2522 51.9956 10.0868 52.6476 9.83879C53.0551 9.67343 53.4626 9.50806 53.7071 9.26003L53.4626 9.012C53.2996 9.012 53.1366 8.92934 53.1366 8.92934C52.5661 8.92934 51.9141 9.17735 51.1806 9.67342C51.0176 9.83878 50.3656 10.2522 49.3877 10.9136C49.4692 10.5829 49.5507 10.3348 49.5507 10.0868C49.5507 9.7561 49.4692 9.50806 49.3062 9.26003C49.2247 9.17735 49.2247 9.17737 49.1432 9.17737C49.0617 9.17737 48.9802 9.26006 48.8172 9.34274C48.6542 9.42541 48.5727 9.50805 48.4912 9.50805C48.2467 10.2522 47.9207 11.2443 47.5132 12.4018C47.5132 12.4845 47.4317 12.4845 47.4317 12.5672C47.3502 12.6499 47.3502 12.8152 47.2687 12.8979C46.9427 13.7247 46.6167 14.6342 46.2907 15.6263C46.6982 15.957 46.8612 16.1223 46.9427 16.1223C47.1057 16.3704 47.1872 16.3704 47.1872 16.2877ZM0.407489 15.7917C1.05947 15.6263 2.03744 15.2129 3.42291 14.6341C3.83039 14.4688 4.23788 14.3034 4.72687 14.1381C5.13436 13.9727 5.54185 13.8073 5.94934 13.642C7.1718 13.1459 8.14978 12.8152 8.96476 12.6499C9.04626 12.5672 9.37225 12.4845 9.86123 12.4018C10.1872 12.3191 10.4317 12.2365 10.5132 11.9884C9.37225 12.0711 7.82379 12.4018 5.94934 12.9806L1.87445 14.3035L1.46696 14.3861V14.3035C1.38546 13.8901 1.38546 13.5593 1.38546 13.3113C1.38546 12.6499 1.62996 11.4924 2.03745 9.83879C2.20044 9.17736 2.60793 8.68128 3.09691 8.43324C3.4229 8.26788 3.99339 8.10251 4.88987 7.85448C5.70485 7.68912 6.27533 7.44109 6.60132 7.19306C7.00881 7.11038 7.4163 7.02769 7.82379 7.02769C8.31277 6.94501 8.72026 6.77969 8.96476 6.69701C9.04626 6.61433 9.04625 6.61432 9.04625 6.53164C9.04625 6.44896 8.96475 6.36626 8.80176 6.2009C7.82379 6.2009 6.76431 6.28358 5.86784 6.6143C5.37885 6.77965 4.40088 7.1104 3.01542 7.52379L2.85242 7.27577C3.01542 6.86237 3.17841 6.11824 3.25991 5.12609C3.34141 4.13395 3.50441 3.38986 3.6674 2.97646C3.99339 2.23236 4.48238 1.73629 5.13436 1.48826C7.1718 1.07486 8.55727 0.909496 9.12775 0.909496C9.77973 0.909496 10.3502 0.992165 10.8392 1.15752C11.1652 1.07484 11.3282 0.909466 11.3282 0.826787C11.3282 0.744108 11.3282 0.744149 11.3282 0.66147L11.0837 0.496103C10.5132 0.165388 9.77974 0 8.96476 0C8.23128 0 7.4978 0.0826989 6.68282 0.330735C6.19383 0.496092 5.46035 0.66144 4.48238 0.992155C4.31938 1.07483 4.15639 1.15752 3.99339 1.15752C3.8304 1.15752 3.6674 1.07482 3.7489 0.826787C3.6674 0.826787 3.5859 0.826787 3.5044 0.826787C3.4229 0.826787 3.34141 0.826787 3.25991 0.826787C3.17841 0.826787 3.09691 0.909476 3.09691 0.992155C2.93392 2.89377 2.52643 5.12612 1.79295 7.68916C1.46696 8.76398 0.896476 10.9136 0 14.1381C0 14.2208 -2.48954e-06 14.3034 0.162993 14.5515C0.162993 14.6342 0.244493 14.6342 0.244493 14.7169C0.244493 14.7995 0.162994 14.8822 0.0814966 14.8822C-1.24477e-06 14.9648 0 15.0476 0 15.1302C0 15.5436 0.162996 15.709 0.407489 15.7917ZM11.2467 15.8743C11.8987 14.8822 12.7952 14.2208 13.7731 13.9727C13.9361 14.3034 14.2621 14.7995 14.6696 15.4609C14.9956 15.957 15.2401 16.4531 15.3216 17.0318C15.4031 17.1145 15.5661 17.1145 15.6476 17.1145C15.7291 17.1145 15.8106 17.1145 15.8921 17.0318C15.8921 16.6185 15.7291 16.0397 15.4031 15.2129C15.0771 14.3861 14.8326 13.8074 14.8326 13.394L14.9141 13.3113C15.0771 13.0633 15.4031 12.8152 15.7291 12.5672C15.8921 12.4845 16.0551 12.3192 16.2181 12.2365L17.7665 11.327C17.848 11.2443 17.9295 11.1616 18.174 11.1616C18.2555 11.1616 18.337 11.1616 18.337 11.1616H18.5C18.7445 11.1616 18.826 11.079 18.826 10.9136L18.7445 10.7482C18.7445 10.5002 18.663 10.3349 18.4185 10.2522C18.337 10.2522 18.0925 10.1695 17.7665 10.0868L14.0176 12.4018C13.3656 11.4923 12.7952 10.9136 12.3062 10.5002C11.9802 10.6656 11.8172 10.8309 11.8172 11.079C11.8172 11.2443 11.9802 11.5751 12.4692 12.0711C12.8766 12.4845 13.0396 12.8152 13.1211 13.0633C13.0396 13.2286 12.7952 13.394 12.6322 13.642C12.3877 13.89 12.1432 14.1381 11.7357 14.3861C11.1652 14.8822 10.7577 15.3783 10.6762 15.8743H11.2467Z" fill="white"/>
<path d="M36.7537 9.67858C32.936 8.95728 33.0887 6.72129 33.4704 6C33.0887 6.57703 31.7143 9.10153 36.601 10.6162C40.4951 11.8424 44.8473 9.75072 45 9.60647C44.9236 8.88517 44.6946 8.23602 44.3892 7.58685C44.1601 7.73111 41.335 10.5441 36.7537 9.67858Z" fill="white"/>
<path d="M34.8035 15.6951C32.1329 14.4146 31.0809 12.7073 31 11C31.0809 13.9024 32.7803 16.4634 35.289 17.5732C35.2081 17.4878 35.1272 17.4025 35.1272 17.3171C35.1272 16.8903 36.2601 16.7195 37.474 16.8903C38.7688 17.061 39.7399 17.4878 39.659 17.8293C39.659 17.9146 39.578 18 39.578 18C42.2486 17.4024 44.4335 15.1829 45 12.2805C44.7572 12.7073 41.4393 18.3415 34.8035 15.6951Z" fill="white"/>
<path d="M36.9429 8.72231C40.6286 9.6499 44.7429 7.96337 45 7.87905C44.4 6.52982 43.3714 5.43354 42.0857 4.6746C42.2571 4.84325 42.4286 4.92758 42.4286 5.09623C42.3429 5.60219 40.8 5.85518 38.9143 5.68653C37.0286 5.51788 35.5714 4.92761 35.5714 4.33733C35.5714 4.16867 35.7429 4.08433 36 4C34.8857 4.33731 33.8571 4.92762 33 5.77089C33 5.85521 33.1714 7.79472 36.9429 8.72231Z" fill="white"/>
<path d="M45.9451 9.61255C45.7778 9.84291 42.1824 13.9126 36.3294 12.3769C32.4831 11.3786 31.8978 9.53574 32.1486 8C31.7306 9.68931 31.9814 11.9929 35.7441 13.2983C42.7677 15.4483 45.6106 11.9929 45.7778 11.7626C45.8615 11.5322 45.8615 11.3018 45.8615 11.0715C46.0287 10.6108 46.0287 10.0733 45.9451 9.61255Z" fill="white"/>
</svg>
